HIERARCHY
ROOT Hips
{
	OFFSET -3.958830 18.904000 13.208200
	CHANNELS 6 Xposition Yposition Zposition Zrotation Yrotation Xrotation 
	JOINT LHipJoint
	{
		OFFSET 0.000000 0.000000 0.000000
		CHANNELS 3 Zrotation Yrotation Xrotation
		JOINT LeftUpLeg
		{
			OFFSET 1.800000 -1.400000 0.085000
			CHANNELS 3 Zrotation Yrotation Xrotation
			JOINT LeftLeg
			{
				OFFSET 2.215000 -6.000000 0.000000
				CHANNELS 3 Zrotation Yrotation Xrotation
				JOINT LeftFoot
				{
					OFFSET 2.500000 -6.900000 0.000000
					CHANNELS 3 Zrotation Yrotation Xrotation
					JOINT LeftToeBase
					{
						OFFSET 0.200000 -0.500000 1.950000
						CHANNELS 3 Zrotation Yrotation Xrotation
						End Site
						{
							OFFSET 0.000000 0.000000 0.000000
						}
					}
				}
			}
		}
	}
	JOINT RHipJoint
	{
		OFFSET 0.000000 0.000000 0.000000
		CHANNELS 3 Zrotation Yrotation Xrotation
		JOINT RightUpLeg
		{
			OFFSET -1.800000 -1.400000 0.085000
			CHANNELS 3 Zrotation Yrotation Xrotation
			JOINT RightLeg
			{
				OFFSET -2.215000 -6.000000 0.000000
				CHANNELS 3 Zrotation Yrotation Xrotation
				JOINT RightFoot
				{
					OFFSET -2.500000 -6.900000 0.000000
					CHANNELS 3 Zrotation Yrotation Xrotation
					JOINT RightToeBase
					{
						OFFSET -0.200000 -0.500000 1.950000
						CHANNELS 3 Zrotation Yrotation Xrotation
						End Site
						{
							OFFSET 0.000000 0.000000 0.000000
						}
					}
				}
			}
		}
	}
	JOINT LowerBack
	{
		OFFSET 0.000000 0.000000 0.000000
		CHANNELS 3 Zrotation Yrotation Xrotation
		JOINT Spine
		{
			OFFSET -0.087000 1.940000 -0.288900
			CHANNELS 3 Zrotation Yrotation Xrotation
			JOINT Spine1
			{
				OFFSET 0.000000 1.950000 0.060000
				CHANNELS 3 Zrotation Yrotation Xrotation
				JOINT Neck
				{
					OFFSET 0.000000 0.000000 0.000000
					CHANNELS 3 Zrotation Yrotation Xrotation
					JOINT Neck1
					{
						OFFSET 0.000000 1.600000 0.340000
						CHANNELS 3 Zrotation Yrotation Xrotation
						JOINT Head
						{
							OFFSET 0.000000 1.667000 -0.240000
							CHANNELS 3 Zrotation Yrotation Xrotation
							End Site
							{
								OFFSET 0.000000 0.000000 0.000000
							}
						}
					}
				}
				JOINT LeftShoulder
				{
					OFFSET 0.000000 0.000000 0.000000
					CHANNELS 3 Zrotation Yrotation Xrotation
					JOINT LeftArm
					{
						OFFSET 2.700000 1.550000 -0.730000
						CHANNELS 3 Zrotation Yrotation Xrotation
						JOINT LeftForeArm
						{
							OFFSET 5.450000 0.000000 0.000000
							CHANNELS 3 Zrotation Yrotation Xrotation
							JOINT LeftHand
							{
								OFFSET 3.450000 0.000000 0.000000
								CHANNELS 3 Zrotation Yrotation Xrotation
								JOINT LeftHandIndex1
								{
									OFFSET 0.750000 0.000000 0.000000
									CHANNELS 3 Zrotation Yrotation Xrotation
									End Site
									{
										OFFSET 0.000000 0.000000 0.000000
									}
								}
							}
						}
					}
				}
				JOINT RightShoulder
				{
					OFFSET 0.000000 0.000000 0.000000
					CHANNELS 3 Zrotation Yrotation Xrotation
					JOINT RightArm
					{
						OFFSET -2.700000 1.550000 -0.730000
						CHANNELS 3 Zrotation Yrotation Xrotation
						JOINT RightForeArm
						{
							OFFSET -5.450000 0.000000 0.000000
							CHANNELS 3 Zrotation Yrotation Xrotation
							JOINT RightHand
							{
								OFFSET -3.450000 0.000000 0.000000
								CHANNELS 3 Zrotation Yrotation Xrotation
								JOINT RightHandIndex1
								{
									OFFSET -0.750000 0.000000 0.000000
									CHANNELS 3 Zrotation Yrotation Xrotation
									End Site
									{
										OFFSET 0.000000 0.000000 0.000000
									}
								}
							}
						}
					}
				}
			}
		}
	}
}
MOTION
Frames: 7
Frame Time: 0.016667
2.171780 17.933220 -1.697310 -3.908578 -14.158558 5.789218 -15.056750 13.140846 3.210803 -3.828728 -1.618408 -11.173575 -3.970626 3.821512 9.050159 -0.992299 4.301621 3.623081 -0.077600 -0.702830 -0.094640 18.346458 -11.046999 3.044544 0.272491 0.182636 -3.180284 10.021093 -7.174016 14.389274 -0.639856 -4.790365 2.786547 -0.209170 1.165790 0.868460 -3.625842 -1.216711 -7.606326 11.070287 3.225279 9.378122 -2.876789 4.108369 2.935980 3.506633 -1.443356 -10.698891 -3.350592 5.146099 33.529390 -8.277490 5.510800 -6.439710 -18.649865 -10.379477 3.624974 -9.252378 -1.037101 -0.642224 15.973967 -18.044916 -3.062965 -4.511813 2.484753 0.875290 0.679140 -0.050920 0.415100 11.830405 13.560185 7.108267 17.306231 9.515923 -4.623572 -18.350418 20.478039 -2.675299 1.736831 -1.158201 -0.581730 0.533530 0.449720 -0.103040 
2.185090 17.928240 -1.700600 -3.537587 -14.538573 6.296230 -15.052622 13.034370 3.187930 -3.859587 -1.674177 -11.385080 -3.961121 3.687061 8.202669 -1.023575 4.266509 3.643854 -0.078230 -0.704540 -0.102620 18.375241 -11.065677 3.004840 -0.014916 0.097223 -3.412456 9.653383 -6.931448 13.364469 -0.599566 -4.738110 2.803516 -0.189140 1.196880 0.874500 -3.683554 -1.029474 -7.491260 10.706350 3.431045 8.463183 -2.961713 4.147005 3.476535 3.371548 -1.466865 -10.302179 -3.168420 5.239551 31.905469 -8.221850 5.531740 -5.972100 -17.983424 -9.887146 3.429797 -9.700146 -1.698473 -0.548223 16.248572 -17.932107 -3.115260 -4.556716 2.505807 0.840460 0.715540 -0.088830 0.414960 11.454538 12.973244 6.775251 17.575981 10.079384 -4.423809 -18.352520 20.769762 -2.781132 1.714671 -1.194630 -0.591410 0.530760 0.459420 -0.103450 
2.205580 17.920900 -1.710120 -3.210822 -15.674503 7.116392 -15.023805 12.911257 3.124182 -3.310004 -1.752032 -11.880406 -3.704266 3.447820 7.117696 -1.039597 4.157083 3.678825 -0.036120 -0.639140 -0.099920 18.429621 -11.105127 2.974636 -0.361841 -0.055724 -3.679719 8.962751 -6.494513 11.560613 -0.569928 -4.639071 2.829924 -0.140840 1.202560 0.891280 -3.810742 -0.762425 -7.332156 10.672036 3.769471 7.313121 -3.388776 4.380275 4.031413 3.164674 -1.865146 -9.761107 -3.580043 5.736810 29.873485 -8.146370 5.784390 -5.889120 -16.743076 -8.795871 3.082645 -10.472771 -2.487804 -0.420511 16.675559 -17.863792 -3.155028 -4.583123 2.572089 0.782830 0.743010 -0.107040 0.433100 10.618443 12.076129 6.266450 18.166210 11.112521 -3.983904 -18.202655 21.015387 -2.884362 1.703233 -1.266660 -0.564660 0.505150 0.436730 -0.089060 
2.232310 17.918070 -1.722900 -2.617757 -16.930193 7.788464 -15.003173 12.842649 3.055096 -2.436420 -1.799487 -12.332279 -3.555325 3.310632 6.519753 -1.016494 4.078635 3.707679 0.004930 -0.561650 -0.113420 18.459924 -11.153424 2.932493 -1.263543 -0.064381 -4.216523 8.503886 -6.163721 10.212827 -0.544780 -4.569600 2.852077 -0.098030 1.216520 0.908410 -3.885396 -0.563513 -7.191210 10.223946 4.165354 6.314438 -3.750629 4.698210 4.311703 2.915563 -2.143948 -9.316362 -3.854905 6.109171 28.232428 -7.582620 5.758490 -5.553170 -16.103243 -7.966383 2.805814 -10.505892 -2.784635 -0.358515 16.729592 -18.309689 -3.144209 -4.590727 2.648892 0.714010 0.767930 -0.117860 0.465090 10.482541 11.386781 5.865529 17.922264 11.470145 -3.706726 -17.873806 21.920639 -2.959129 1.695285 -1.334336 -0.523430 0.481790 0.403710 -0.052730 
2.258030 17.920130 -1.742640 -1.837896 -17.528045 7.818924 -15.022381 12.879424 3.005242 -1.230419 -1.747841 -12.302060 -3.414562 3.231110 5.855250 -1.026755 4.096632 3.713426 0.017610 -0.554600 -0.105750 18.432578 -11.143114 2.910855 -2.544580 -0.068184 -4.152982 8.649820 -6.063914 9.045351 -0.542948 -4.567340 2.857454 -0.088220 1.227770 0.910560 -3.811728 -0.635583 -7.154746 9.204085 4.196796 6.034647 -3.693128 4.681484 4.319621 2.878428 -2.189179 -9.184292 -3.941092 6.366408 28.131231 -7.472110 5.904510 -5.501650 -16.185102 -7.817075 2.714287 -9.748201 -2.775419 -0.265091 16.658098 -17.819132 -3.071692 -4.594083 2.650226 0.719610 0.773560 -0.120580 0.478780 10.703523 11.256994 5.736264 16.784003 11.477662 -3.531785 -16.622509 22.631170 -2.714938 1.681993 -1.330784 -0.532420 0.488870 0.393320 -0.052750 
2.278070 17.907210 -1.752820 -1.326886 -17.922932 8.194584 -15.026635 12.852656 2.907782 0.486642 -1.660440 -12.395635 -3.672260 3.251437 5.212577 -1.018510 4.171026 3.711549 0.012070 -0.544230 -0.127720 18.436976 -11.127336 2.883260 -3.660230 -0.020861 -4.305700 9.121614 -6.011409 8.078480 -0.517027 -4.632993 2.842407 -0.060600 1.284930 0.910620 -3.822968 -0.597334 -7.030877 8.576446 4.175861 4.924828 -3.799186 4.520992 4.884401 2.716682 -2.130854 -8.931850 -3.702753 6.678722 26.845064 -7.210420 6.055560 -4.318630 -15.663905 -7.771321 2.607373 -8.808114 -4.190666 0.215474 15.430432 -14.783241 -2.659360 -4.677029 2.653699 0.655530 0.827690 -0.167040 0.496670 10.574859 10.953592 5.513249 16.283972 11.787919 -3.150425 -15.768530 23.004482 -2.650525 1.670087 -1.372428 -0.542060 0.498130 0.389110 -0.031590 
2.304130 17.882900 -1.761760 -1.381032 -18.261785 9.047991 -14.999741 12.806506 2.786734 2.365293 -1.667560 -13.161367 -3.538239 3.234914 5.153730 -1.088646 4.254066 3.714600 0.006210 -0.548090 -0.145190 18.476296 -11.125829 2.868971 -4.085301 0.095432 -4.885786 9.564234 -5.967704 7.552163 -0.474369 -4.682981 2.836446 -0.012850 1.376240 0.903590 -3.935694 -0.482183 -6.872992 9.006189 4.028949 3.735183 -4.271576 4.311952 5.256218 2.482064 -2.335351 -8.400129 -3.797661 7.059069 24.439271 -7.112490 5.981390 -3.660490 -15.059453 -7.019189 2.337747 -8.350399 -4.510066 0.516554 14.972605 -14.579513 -2.601256 -4.760450 2.645081 0.609060 0.903660 -0.239080 0.513750 10.409854 10.054772 4.943725 15.918950 12.090794 -2.937205 -15.260431 24.755352 -2.742757 1.599766 -1.410453 -0.593660 0.547790 0.404670 -0.027670 
